<svg xmlns="http://www.w3.org/2000/svg" viewBox="0 0 290 304"><defs><style>.cls-1{fill:#258ecd;}.cls-2{fill:#f37524;}</style></defs><title>completecat</title><g id="Layer_2" data-name="Layer 2"><g id="Layer_1-2" data-name="Layer 1"><path class="cls-1" d="M79,304H9a9,9,0,0,1-9-9V225a9,9,0,0,1,9-9H79a9,9,0,0,1,9,9v70A9,9,0,0,1,79,304ZM18,286H70V234H18Z"/><path class="cls-1" d="M281,35H117a9,9,0,0,1,0-18H281a9,9,0,0,1,0,18Z"/><path class="cls-1" d="M199,71H117a9,9,0,0,1,0-18h82a9,9,0,0,1,0,18Z"/><path class="cls-1" d="M281,143H117a9,9,0,0,1,0-18H281a9,9,0,0,1,0,18Z"/><path class="cls-1" d="M221,179H117a9,9,0,0,1,0-18H221a9,9,0,0,1,0,18Z"/><path class="cls-1" d="M281,251H117a9,9,0,0,1,0-18H281a9,9,0,0,1,0,18Z"/><path class="cls-1" d="M177,287H117a9,9,0,0,1,0-18h60a9,9,0,0,1,0,18Z"/><path class="cls-1" d="M70,53.64V70H18V18H59L77,0H9A9,9,0,0,0,0,9V79a9,9,0,0,0,9,9H79a9,9,0,0,0,9-9V35.64Z"/><path class="cls-2" d="M45.3,64a9,9,0,0,1-6.36-2.64L23.33,45.76A9,9,0,0,1,36.06,33l9.24,9.24L84.94,2.64A9,9,0,0,1,97.67,15.36l-46,46A9,9,0,0,1,45.3,64Z"/><path class="cls-1" d="M70,161.64V178H18V126H59l18-18H9a9,9,0,0,0-9,9v70a9,9,0,0,0,9,9H79a9,9,0,0,0,9-9V143.64Z"/><path class="cls-2" d="M45.3,172a9,9,0,0,1-6.36-2.64L23.33,153.76A9,9,0,1,1,36.06,141l9.24,9.24,39.64-39.64a9,9,0,0,1,12.73,12.73l-46,46A9,9,0,0,1,45.3,172Z"/></g></g></svg>