<svg xmlns="http://www.w3.org/2000/svg" viewBox="0 0 403.5 459.5"><defs><style>.cls-1{fill:#258ecd;}.cls-2{fill:#f37524;}</style></defs><title>completemod</title><g id="Layer_2" data-name="Layer 2"><g id="Layer_1-2" data-name="Layer 1"><path class="cls-1" d="M201.5,320a125.14,125.14,0,0,1-125-125V9a9,9,0,0,1,9-9h232a9,9,0,0,1,9,9V195A125.14,125.14,0,0,1,201.5,320ZM94.5,18V195a107,107,0,0,0,214,0V18Z"/><path class="cls-1" d="M85,219.5a85.1,85.1,0,0,1-85-85v-79a9,9,0,0,1,9-9H85a9,9,0,0,1,9,9v155A9,9,0,0,1,85,219.5ZM18,64.5v70a67.1,67.1,0,0,0,58,66.4V64.5Z"/><path class="cls-1" d="M318.5,220a9,9,0,0,1-9-9V56a9,9,0,0,1,9-9h76a9,9,0,0,1,9,9v79A85.1,85.1,0,0,1,318.5,220Zm9-155V201.4a67.1,67.1,0,0,0,58-66.4V65Z"/><path class="cls-1" d="M318,459.5H85a9,9,0,0,1-9-9,51.3,51.3,0,0,1,41.71-50.36A65.53,65.53,0,0,0,171,335.81V312a9,9,0,0,1,9-9h43a9,9,0,0,1,9,9v23.81a65.53,65.53,0,0,0,53.29,64.33A51.3,51.3,0,0,1,327,450.5,9,9,0,0,1,318,459.5Zm-222.76-18H307.76a33.29,33.29,0,0,0-25.82-23.67,83.55,83.55,0,0,1-67.94-82V321H189v14.81a83.55,83.55,0,0,1-67.94,82A33.29,33.29,0,0,0,95.24,441.5Z"/><path class="cls-2" d="M237.44,216.3a9,9,0,0,1-2.84-.46l-33.09-11-33.09,11a9,9,0,0,1-11.84-8.6l.26-34.88-20.71-28.07a9,9,0,0,1,4.52-13.92l33.25-10.53,20.29-28.37a9,9,0,0,1,14.64,0l20.29,28.37,33.25,10.53a9,9,0,0,1,4.52,13.92l-20.71,28.07.26,34.88a9,9,0,0,1-9,9.07Zm-35.94-30a9,9,0,0,1,2.84.46l24,8-.19-25.29a9,9,0,0,1,1.76-5.41l15-20.35-24.11-7.64a9,9,0,0,1-4.6-3.34L201.5,112.17l-14.72,20.57a9,9,0,0,1-4.6,3.34l-24.11,7.64,15,20.35a9,9,0,0,1,1.76,5.41l-.19,25.29,24-8A9,9,0,0,1,201.5,186.33Z"/></g></g></svg>