<svg xmlns="http://www.w3.org/2000/svg" viewBox="0 0 66 81.68"><defs><style>.cls-1{fill:#e06f18;}</style></defs><title>notifications</title><g id="Layer_2" data-name="Layer 2"><g id="Layer_1-2" data-name="Layer 1"><path class="cls-1" d="M33,81.68A9.64,9.64,0,0,1,23.37,72h4a5.68,5.68,0,1,0,11.36,0h4A9.64,9.64,0,0,1,33,81.68Z"/><path class="cls-1" d="M33,4A2.15,2.15,0,0,1,35.15,6.1v6l3,.77A20.34,20.34,0,0,1,53.35,32.6V57.53l1.28,1.17L61,64.58H5l6.38-5.88,1.28-1.17V32.6A20.34,20.34,0,0,1,27.89,12.9l3-.77v-6A2.15,2.15,0,0,1,33,4m0-4a6.1,6.1,0,0,0-6.1,6.1v3A24.32,24.32,0,0,0,8.69,32.6V55.79l-7.62,7A3.29,3.29,0,0,0,3.3,68.53H62.7a3.29,3.29,0,0,0,2.23-5.72l-7.62-7V32.6A24.32,24.32,0,0,0,39.1,9.07v-3A6.1,6.1,0,0,0,33,0Z"/></g></g></svg>
