<svg xmlns="http://www.w3.org/2000/svg" viewBox="0 0 65 65"><defs><style>.cls-1{fill:#f58025;}.cls-2{fill:#1a9ad6;}</style></defs><title>notificationbug</title><g id="Layer_2" data-name="Layer 2"><g id="Layer_1-2" data-name="Layer 1"><path class="cls-1" d="M37.68,52.09a4.79,4.79,0,0,1-5.85-3.4l1.9-.5a2.82,2.82,0,0,0,5.45-1.45l1.9-.5A4.79,4.79,0,0,1,37.68,52.09Z"/><path class="cls-1" d="M27.78,14.8a1.07,1.07,0,0,1,1.3.76L29.46,17l.39,1.47h1.52A10.1,10.1,0,0,1,41.2,26l3,11.13.22.83.76.4,3.81,2L22.06,47.45l2.31-3.63.46-.73-.22-.83-3-11.13a10.1,10.1,0,0,1,4.8-11.4L27.79,19l-.39-1.47L27,16.1a1.07,1.07,0,0,1,.76-1.3m-.5-1.9a3,3,0,0,0-2.15,3.7L25.51,18a12.07,12.07,0,0,0-5.74,13.61l3,11.13L20,47.1a1.64,1.64,0,0,0,1.8,2.46L50.26,42a1.64,1.64,0,0,0,.34-3L46,36.57l-3-11.13a12.07,12.07,0,0,0-11.73-9L31,15.05a3,3,0,0,0-3.7-2.15Z"/><path class="cls-2" d="M32.5,65A32.5,32.5,0,1,1,65,32.5,32.54,32.54,0,0,1,32.5,65Zm0-63.87A31.37,31.37,0,1,0,63.87,32.5,31.41,31.41,0,0,0,32.5,1.13Z"/></g></g></svg>