<svg xmlns="http://www.w3.org/2000/svg" viewBox="0 0 70 68.4"><defs><style>.cls-1{fill:#e06f18;}</style></defs><title>phace</title><g id="Layer_2" data-name="Layer 2"><g id="Layer_1-2" data-name="Layer 1"><path class="cls-1" d="M1.82,68.4A1.82,1.82,0,0,1,.17,65.81L6.58,52A34.22,34.22,0,1,1,16.77,62.6L2.49,68.27A1.83,1.83,0,0,1,1.82,68.4ZM17,58.72a1.8,1.8,0,0,1,1.05.34,30.56,30.56,0,1,0-7.87-8.22,1.82,1.82,0,0,1,.09,1.84L5.4,63.2l10.8-4.28A1.83,1.83,0,0,1,17,58.72Z"/><circle class="cls-1" cx="43.86" cy="24.71" r="4.74"/><circle class="cls-1" cx="26.61" cy="24.71" r="4.74"/><path class="cls-1" d="M51.39,43.17c0,6.35-7.34,11.49-16.39,11.49S18.61,49.52,18.61,43.17Z"/></g></g></svg>
