<svg xmlns="http://www.w3.org/2000/svg" viewBox="0 0 78 84.4"><defs><style>.cls-1{fill:#e06f18;}</style></defs><title>training</title><g id="Layer_2" data-name="Layer 2"><g id="Layer_1-2" data-name="Layer 1"><path class="cls-1" d="M11.73,40.93H1.93a1.93,1.93,0,1,1,0-3.85h9.8a1.93,1.93,0,0,1,0,3.85Z"/><path class="cls-1" d="M76.07,40.93h-9.8a1.93,1.93,0,0,1,0-3.85h9.8a1.93,1.93,0,1,1,0,3.85Z"/><path class="cls-1" d="M39,13.65a1.93,1.93,0,0,1-1.93-1.93V1.93a1.93,1.93,0,1,1,3.85,0v9.8A1.93,1.93,0,0,1,39,13.65Z"/><path class="cls-1" d="M6.89,59.46a1.93,1.93,0,0,1-1-3.59L14.42,51a1.93,1.93,0,0,1,1.93,3.34L7.86,59.2A1.91,1.91,0,0,1,6.89,59.46Z"/><path class="cls-1" d="M62.62,27.29a1.93,1.93,0,0,1-1-3.59l8.49-4.9a1.93,1.93,0,1,1,1.93,3.34L63.58,27A1.91,1.91,0,0,1,62.62,27.29Z"/><path class="cls-1" d="M25.37,17.31a1.93,1.93,0,0,1-1.67-1L18.8,7.86a1.93,1.93,0,1,1,3.34-1.93L27,14.42a1.93,1.93,0,0,1-1.67,2.89Z"/><path class="cls-1" d="M52.64,17.31A1.93,1.93,0,0,1,51,14.42l4.9-8.49a1.93,1.93,0,1,1,3.34,1.93l-4.9,8.49A1.93,1.93,0,0,1,52.64,17.31Z"/><path class="cls-1" d="M71.11,59.46a1.91,1.91,0,0,1-1-.26l-8.49-4.9A1.93,1.93,0,0,1,63.58,51l8.49,4.9a1.93,1.93,0,0,1-1,3.59Z"/><path class="cls-1" d="M15.38,27.29a1.91,1.91,0,0,1-1-.26l-8.49-4.9a1.93,1.93,0,0,1,1.93-3.34l8.49,4.9a1.93,1.93,0,0,1-1,3.59Z"/><path class="cls-1" d="M47,68.38a1.93,1.93,0,0,1-1.93-1.93v-.54a22.63,22.63,0,0,1,6-15.59,16.54,16.54,0,1,0-24.37-.27,23.64,23.64,0,0,1,6.23,15.73v.67a1.93,1.93,0,1,1-3.85,0v-.67a19.79,19.79,0,0,0-5.24-13.16,20.39,20.39,0,1,1,30,.33,18.8,18.8,0,0,0-4.94,13v.54A1.93,1.93,0,0,1,47,68.38Z"/><path class="cls-1" d="M47,72.75H31a1.93,1.93,0,0,1,0-3.85H47a1.93,1.93,0,1,1,0,3.85Z"/><path class="cls-1" d="M47,78.58H31a1.93,1.93,0,0,1,0-3.85H47a1.93,1.93,0,1,1,0,3.85Z"/><path class="cls-1" d="M43.17,84.4H34.83a1.93,1.93,0,0,1,0-3.85h8.33a1.93,1.93,0,1,1,0,3.85Z"/></g></g></svg>
