<svg xmlns="http://www.w3.org/2000/svg" viewBox="0 0 52 76.18"><defs><style>.cls-1{fill:#e06f18;}</style></defs><title>pay</title><g id="Layer_2" data-name="Layer 2"><g id="Layer_1-2" data-name="Layer 1"><path class="cls-1" d="M29.47,3.88V8.09a34.49,34.49,0,0,1,17.17,6.19l-5.37,7.59a26.61,26.61,0,0,0-11.8-4.79V32.6h.25q9.49,2.23,13.95,6t4.46,11A15,15,0,0,1,43,61.41q-5.12,4.54-13.54,5V72.3H24.19v-6a35.85,35.85,0,0,1-20.3-9l6-7.18q6.93,6,14.28,7.18v-16Q14.86,39,10.53,35.41T6.19,24.64a15.07,15.07,0,0,1,5-11.68q5-4.54,13-5V3.88h5.28M24.19,31.12V16.84A9.88,9.88,0,0,0,18.37,19a5.91,5.91,0,0,0-2.1,4.62A5.82,5.82,0,0,0,17.91,28q1.65,1.61,6.27,3.1m5.28,26.41a11.55,11.55,0,0,0,6.27-2.31,6.37,6.37,0,0,0,.5-9.37q-1.82-1.69-6.77-3.18V57.53M29.47,0H24.19A3.88,3.88,0,0,0,20.3,3.88v.66A22.88,22.88,0,0,0,8.58,10.09,18.87,18.87,0,0,0,2.31,24.64C2.31,30.58,4.24,35.2,8,38.38c2.88,2.41,6.91,4.35,12.27,5.88v7.91a28.75,28.75,0,0,1-7.85-5,3.88,3.88,0,0,0-2.55-1H9.6A3.88,3.88,0,0,0,6.93,47.6l-6,7.18a3.88,3.88,0,0,0,.42,5.42,40.1,40.1,0,0,0,19,9.42V72.3a3.88,3.88,0,0,0,3.88,3.88h5.28a3.88,3.88,0,0,0,3.88-3.88V69.85a23.71,23.71,0,0,0,12.23-5.54A18.79,18.79,0,0,0,52,49.64c0-6-2-10.68-5.82-14-3-2.56-7.22-4.58-12.83-6.15V22A23.68,23.68,0,0,1,39,25a3.88,3.88,0,0,0,5.42-.92l5.37-7.59a3.88,3.88,0,0,0-1-5.44A39.13,39.13,0,0,0,33.35,4.66V3.88A3.88,3.88,0,0,0,29.47,0ZM20.3,24.75a3.15,3.15,0,0,1-.16-1.1,2.22,2.22,0,0,1,.16-.89v2Zm13,27.41V48.49l.24.2a2.07,2.07,0,0,1,.58,1.74,2.05,2.05,0,0,1-.82,1.73Z"/><rect class="cls-1" x="19.03" y="21.66" width="3.1" height="5.56"/><rect class="cls-1" x="32.1" y="47.4" width="3.1" height="5.56"/></g></g></svg>
